<svg id="Layer_1" data-name="Layer 1" xmlns="http://www.w3.org/2000/svg" xmlns:xlink="http://www.w3.org/1999/xlink" viewBox="0 0 619 166">
  <defs>
    <style>
      .cls-1 {
        fill: none;
      }

      .cls-2 {
        fill: #2f9aff;
      }

      .cls-3 {
        clip-path: url(#clip-path);
      }

      .cls-4 {
        fill: #3289ff;
      }

      .cls-5 {
        fill: #27ccff;
      }

      .cls-6 {
        fill: #314463;
      }
    </style>
    <clipPath id="clip-path">
      <path class="cls-1" d="M149,63.79V50.32A44,44,0,0,0,105.05,6.39H81.24A44,44,0,0,0,37.31,50.32V97.13a43.7,43.7,0,0,0,4.3,18.93L27.82,149.79l33.32-13.62a43.72,43.72,0,0,0,20.1,4.88h23.81A44,44,0,0,0,149,97.13V83.66h-35.3V97.13a8.63,8.63,0,0,1-8.62,8.62H81.24a8.64,8.64,0,0,1-8.63-8.62V50.32a8.64,8.64,0,0,1,8.63-8.63h23.81a8.64,8.64,0,0,1,8.62,8.63V63.79Z"/>
    </clipPath>
  </defs>
  <g>
    <g>
      <g>
        <path class="cls-2" d="M113.67,83.66V97.13a8.63,8.63,0,0,1-8.62,8.62H85.81c0,.75.06,1.5,0,2.19a70.09,70.09,0,0,1-.92,8.43c0,.31-.09.61-.13.91,0,.09,0,.17,0,.26v.07c0,.38-.09.75-.11,1.13-.15,2.39-.1,4.8-.13,7.19-.07,4.48,0,9.15-1.43,13.45-.18.56-.38,1.12-.6,1.67h22.57A44,44,0,0,0,149,97.13V83.66Z"/>
        <path class="cls-2" d="M105.05,6.39H81.24A43.55,43.55,0,0,0,66.38,9a75.51,75.51,0,0,0,2,7.68,37,37,0,0,1,1.69,9c.12,3.22-.35,6.4,0,9.62a20.77,20.77,0,0,0,2.93,8.28,20.45,20.45,0,0,0,1.18,1.74,8.64,8.64,0,0,1,7-3.57h23.81a8.64,8.64,0,0,1,8.62,8.63V63.79H149V50.32A44,44,0,0,0,105.05,6.39Z"/>
        <g class="cls-3">
          <circle class="cls-4" cx="137.82" cy="112.34" r="19.17"/>
          <circle class="cls-4" cx="74.3" cy="16.68" r="19.17"/>
          <circle class="cls-4" cx="63.2" cy="133.22" r="13.46"/>
          <circle class="cls-4" cx="69.45" cy="69.06" r="17.67"/>
          <circle class="cls-4" cx="139.54" cy="53.82" r="13.46"/>
          <circle class="cls-5" cx="71.02" cy="96.9" r="17.38"/>
          <circle class="cls-5" cx="109.66" cy="38.16" r="17.38"/>
          <circle class="cls-5" cx="86.58" cy="130.19" r="17.38"/>
          <circle class="cls-5" cx="141.55" cy="92.79" r="12.66"/>
          <circle class="cls-5" cx="69.23" cy="43.05" r="12.66"/>
          <circle class="cls-5" cx="50.35" cy="31.29" r="5.6"/>
          <circle class="cls-4" cx="46.16" cy="83.66" r="7.05"/>
          <circle class="cls-5" cx="42.4" cy="67.85" r="4.82"/>
          <circle class="cls-4" cx="95.34" cy="106.79" r="19.17"/>
          <circle class="cls-4" cx="111.21" cy="20.12" r="9.59"/>
        </g>
        <g>
          <path class="cls-4" d="M39.2,37.52a11.36,11.36,0,0,0-1.89,21.89V50.26A44,44,0,0,1,39.2,37.52Z"/>
          <path class="cls-5" d="M52.55,48.72A11.39,11.39,0,0,0,41.17,37.34a11.64,11.64,0,0,0-2,.18,44,44,0,0,0-1.89,12.74v9.15a11.24,11.24,0,0,0,3.86.69A11.39,11.39,0,0,0,52.55,48.72Z"/>
          <path class="cls-5" d="M37.38,99.55a13.33,13.33,0,0,0,.44,25.7L41.61,116A43.47,43.47,0,0,1,37.38,99.55Z"/>
          <path class="cls-4" d="M54.52,112.34A13.35,13.35,0,0,0,41.17,99a13.16,13.16,0,0,0-3.79.56A43.47,43.47,0,0,0,41.61,116l-3.79,9.26a13.31,13.31,0,0,0,16.7-12.91Z"/>
        </g>
        <circle class="cls-5" cx="26.18" cy="126.97" r="3.96"/>
        <circle class="cls-5" cx="33.75" cy="29.14" r="3.96"/>
        <circle class="cls-4" cx="20.5" cy="55.45" r="3.96"/>
        <circle class="cls-4" cx="21.87" cy="92.63" r="6.36"/>
      </g>
      <g>
        <circle class="cls-5" cx="37.68" cy="137.45" r="7.78"/>
        <circle class="cls-5" cx="25.69" cy="147.91" r="5.04"/>
        <circle class="cls-5" cx="17.33" cy="156.45" r="2.52"/>
      </g>
    </g>
    <g>
      <path class="cls-6" d="M228.84,102.05q-1.05,12.54-9.41,19.65-8.56,6.9-22.57,6.9-16.31,0-24.88-9.83-8.58-9.4-8.57-27.8,0-18.82,8.78-28.22,9-9.82,25.92-9.83,13.8,0,21.95,6.9,7.73,6.69,8.78,18.81h-9a7.28,7.28,0,0,1-7.11-4.39,20.33,20.33,0,0,0-3.55-4.8Q205,66.3,198.11,66.3q-9.62,0-14.84,6.27-5,6.27-5,18.4,0,11.7,5,18,4.8,6.5,14.42,6.49a17.77,17.77,0,0,0,11.08-3.35q4-3.14,5.65-10Z"/>
      <path class="cls-6" d="M272.59,109.78H283q-2.3,8.77-8.78,13.38Q267.78,128,258,128q-11.92,0-18.61-7.74-6.69-7.51-6.69-21.53,0-13.38,6.48-20.9,6.69-7.74,18.61-7.74,12.54,0,19.44,7.53,6.69,7.74,6.69,21.53v2.3a3.55,3.55,0,0,1-.21,1.46H247.5q.21,6.48,3.14,9.62,2.72,3.34,8.15,3.34a11.77,11.77,0,0,0,6.06-1.46,2.92,2.92,0,0,0,1.15-.73c.35-.35.74-.73,1.15-1.15a4.55,4.55,0,0,1,1.57-1.67A6.23,6.23,0,0,1,272.59,109.78ZM247.5,93.48h21.33c-.29-3.77-1.26-6.55-2.93-8.37s-4.39-2.92-7.74-2.92a10.18,10.18,0,0,0-7.52,2.92C248.69,87.07,247.64,89.85,247.5,93.48Z"/>
      <path class="cls-6" d="M337.94,126.92h-7.32a6.79,6.79,0,0,1-7.1-7.1V91.39c0-3.35-1-5.79-3-7.32a11,11,0,0,0-6.79-2.3,10.55,10.55,0,0,0-6.69,2.3q-2.92,2.3-2.93,7.32v35.53H289.44V94.31q0-14.2,7.42-19a32.4,32.4,0,0,1,16.41-5.23,31.49,31.49,0,0,1,16.93,4.81q7.74,4.81,7.74,19.44Z"/>
      <path class="cls-6" d="M342.25,108.53h14.21a7.71,7.71,0,0,0,3.14,6.27,14.89,14.89,0,0,0,8.36,2.09,13.54,13.54,0,0,0,6.48-1.46,4.44,4.44,0,0,0,2.51-4q0-3.77-8.78-5.64a39.55,39.55,0,0,1-5.64-1.26q-11.08-2.7-14.85-6.48a12.84,12.84,0,0,1-4.18-10,16.65,16.65,0,0,1,6.07-13.17q6.27-4.8,16.3-4.81,10.88,0,17.35,4.81a18.42,18.42,0,0,1,6.48,13.59h-9a6.62,6.62,0,0,1-6.06-3.56c-.56-.55-1.12-1.11-1.67-1.67a11.29,11.29,0,0,0-6.9-1.88,12.37,12.37,0,0,0-6.27,1.26,4.2,4.2,0,0,0-1.88,3.76q0,3.34,10.87,5.64a22.5,22.5,0,0,0,2.19.63,8.2,8.2,0,0,0,1.78.21q10.67,2.72,14.84,6.27a13.16,13.16,0,0,1,4,10q0,9.21-6.69,14.22-6.27,4.6-18.81,4.6-11.91,0-17.77-4.81-6.06-4.8-6.06-14Z"/>
      <path class="cls-6" d="M444.32,71.32v32.61q0,14.83-7.73,19.44a32.53,32.53,0,0,1-16.94,4.6,33.58,33.58,0,0,1-16.41-5q-7.41-4.59-7.42-19V71.32h14.64v35.53q0,5,2.92,7.32a10.49,10.49,0,0,0,6.69,2.3,11,11,0,0,0,6.8-2.3c2-1.53,3-4,3-7.32V78.42a7,7,0,0,1,2-5A6.77,6.77,0,0,1,437,71.32Z"/>
      <path class="cls-6" d="M464.1,61.91V78.63a17.68,17.68,0,0,1,6.69-6.48,18.73,18.73,0,0,1,9.2-2.09q9.81,0,16.09,8.15t6.27,21.12q0,13-6.27,21.11a17.5,17.5,0,0,1-8.46,5.75A33.44,33.44,0,0,1,477.06,128a35,35,0,0,1-18.6-5.23q-8.58-5.22-8.58-20.07V54.8H457a7.14,7.14,0,0,1,7.11,7.11ZM487.93,98.7c0-5-1-8.92-3.14-11.7a10,10,0,0,0-8.57-4.39,10.57,10.57,0,0,0-9,4.18c-2.09,2.92-3.13,6.9-3.13,11.91,0,5.85,1,10.11,2.93,12.75a10.16,10.16,0,0,0,8.78,4.39,10.35,10.35,0,0,0,9-4.39Q487.94,107.07,487.93,98.7Z"/>
      <path class="cls-6" d="M506.11,55h7.52a7,7,0,0,1,5,2,6.51,6.51,0,0,1,2.09,4.91v65H506.11Z"/>
      <path class="cls-6" d="M565.19,109.78h10.45q-2.31,8.77-8.78,13.38Q560.38,128,550.55,128q-11.91,0-18.6-7.74-6.69-7.51-6.69-21.53,0-13.38,6.48-20.9,6.69-7.74,18.6-7.74,12.54,0,19.44,7.53,6.69,7.74,6.69,21.53v2.3a3.55,3.55,0,0,1-.21,1.46H540.1q.21,6.48,3.13,9.62,2.71,3.34,8.16,3.34a11.77,11.77,0,0,0,6.06-1.46,2.92,2.92,0,0,0,1.15-.73l1.15-1.15a4.55,4.55,0,0,1,1.57-1.67A6.19,6.19,0,0,1,565.19,109.78ZM540.1,93.48h21.32c-.28-3.77-1.25-6.55-2.92-8.37q-2.73-2.92-7.74-2.92a10.2,10.2,0,0,0-7.53,2.92C541.28,87.07,540.24,89.85,540.1,93.48Z"/>
    </g>
    <g>
      <path class="cls-6" d="M577.54,62.09a5.89,5.89,0,0,0,3,.89c1.63,0,2.39-.81,2.39-1.83s-.63-1.66-2.29-2.27c-2.22-.8-3.27-2-3.27-3.5,0-2,1.61-3.62,4.26-3.62a6.28,6.28,0,0,1,3,.76l-.56,1.64a4.79,4.79,0,0,0-2.53-.72c-1.33,0-2.07.77-2.07,1.69s.74,1.48,2.35,2.09c2.14.81,3.24,1.89,3.24,3.72,0,2.17-1.68,3.7-4.62,3.7A7.06,7.06,0,0,1,577,63.8Z"/>
      <path class="cls-6" d="M587.94,55.38c0-1.28,0-2.32-.1-3.34h2l.1,2H590a4.25,4.25,0,0,1,3.88-2.27,3.66,3.66,0,0,1,3.5,2.47h0a5,5,0,0,1,1.38-1.6,4.16,4.16,0,0,1,2.73-.87c1.63,0,4.05,1.07,4.05,5.36v7.27h-2.19v-7c0-2.38-.87-3.81-2.68-3.81a2.9,2.9,0,0,0-2.65,2,3.41,3.41,0,0,0-.18,1.12v7.63h-2.2V57c0-2-.86-3.4-2.57-3.4a3.06,3.06,0,0,0-2.78,2.25,3,3,0,0,0-.18,1.1v7.45h-2.2Z"/>
    </g>
  </g>
</svg>
